# 3ds Max Wavefront OBJ Exporter v0.97b - (c)2007 guruware
# File Created: 31.01.2016 13:49:50

mtllib house2.mtl

#
# object Box003
#

v  -4.9186 13.3093 33.2001
v  1.0389 13.3093 33.2001
v  1.0389 0.2195 33.2001
v  -4.9186 0.2195 33.2001
v  1.0389 0.2195 33.9318
v  1.0389 13.3093 33.9318
v  -4.9186 13.3093 33.9318
v  -4.9186 0.2195 33.9318
v  6.9965 13.3093 33.2001
v  6.9965 13.3093 33.9318
v  6.9965 0.2195 33.9318
v  6.9965 0.2195 33.2001
v  1.0389 26.3990 33.2001
v  1.0389 26.3990 33.9318
v  6.9965 26.3990 33.9318
v  6.9965 26.3990 33.2001
v  -4.9186 26.3990 33.9318
v  -4.9186 26.3990 33.2001
v  -45.4606 0.0000 -33.3537
v  0.9239 0.0000 -33.3537
v  0.9239 0.0000 33.5291
v  -45.4606 0.0000 33.5291
v  0.9269 102.9903 34.5165
v  0.9269 102.9903 -34.3410
v  -47.1661 67.3812 -34.4375
v  -47.1661 67.3812 34.6130
v  0.9239 96.5712 33.5291
v  -45.4606 63.5803 33.5291
v  47.0399 0.0000 -33.3537
v  47.0399 63.5803 -33.3537
v  47.0399 63.5803 33.5291
v  47.0399 0.0000 33.5291
v  0.9239 96.5712 -33.3537
v  -45.4606 63.5803 -33.3537
v  48.7460 67.3793 34.6133
v  48.7460 67.3793 -34.4379
v  0.9239 96.5712 35.2448
v  -47.5786 63.5803 34.3028
v  49.1594 63.5803 34.3006
v  49.1594 63.5803 -34.1251
v  0.9239 96.5712 -35.0694
v  -47.5786 63.5803 -34.1274
v  -22.3473 37.6745 29.8170
v  -20.6070 37.6745 29.8170
v  -20.6070 37.6745 68.8071
v  -22.3473 37.6745 68.8071
v  0.8583 64.7823 29.6182
v  -21.3960 56.1127 29.6002
v  -21.3960 56.1127 69.0239
v  0.8583 64.7823 69.0059
v  -20.6070 37.6745 70.8756
v  -20.6070 55.0606 70.8756
v  -22.3473 54.4093 70.8756
v  -22.3473 37.6745 70.8756
v  23.9266 37.6745 29.8170
v  23.9266 54.4093 29.8170
v  23.9266 54.4093 68.8071
v  23.9266 37.6745 68.8071
v  -22.3473 54.4093 68.8071
v  -22.3473 54.4093 29.8170
v  22.1964 37.6745 68.8071
v  22.1964 37.6745 29.8170
v  24.7800 55.4092 29.5987
v  22.9859 56.1122 29.6002
v  22.9859 56.1122 69.0239
v  24.7800 55.4092 69.0254
v  0.8568 37.6745 70.8756
v  22.1964 37.6745 70.8756
v  22.1964 55.0606 70.8756
v  0.8568 63.0927 70.8756
v  0.8568 63.0927 71.3272
v  0.8583 64.7823 71.1355
v  -21.3960 56.1127 71.1590
v  -21.5870 55.0606 71.0978
v  24.9869 54.4093 68.9624
v  24.9869 54.4093 29.6617
v  -23.2004 55.4097 29.5988
v  -23.4068 54.4093 29.6612
v  -23.4068 54.4093 68.9629
v  -23.2004 55.4097 69.0253
v  24.7800 55.4092 71.1609
v  22.9859 56.1122 71.1590
v  23.1771 55.0606 71.0973
v  24.9869 54.4093 71.0786
v  -23.4068 54.4093 71.0792
v  0.8568 37.6745 68.8071
v  -23.2004 55.4097 71.1609
v  23.9266 54.4093 70.8756
v  23.9266 37.6745 70.8756
v  0.8568 37.6745 29.8170
v  22.1964 -0.1096 70.8756
v  23.9266 -0.1096 70.8756
v  22.1964 -0.1096 68.8071
v  23.9266 -0.1096 68.8071
v  -22.3473 -0.1096 68.8071
v  -22.3473 -0.1096 70.8756
v  -20.6070 -0.1096 68.8071
v  -20.6070 -0.1096 70.8756
# 98 vertices

vn -0.0000 0.0000 -1.0000
vn 0.0000 0.0000 -1.0000
vn 0.0000 -0.0000 1.0000
vn -0.0000 -0.0000 1.0000
vn 0.0000 -1.0000 -0.0000
vn 1.0000 0.0000 -0.0000
vn 0.0000 1.0000 0.0000
vn -1.0000 0.0000 -0.0000
vn 0.0014 1.0000 -0.0000
vn -0.5951 0.8037 -0.0000
vn 0.0000 0.0000 1.0000
vn -0.0000 0.0000 1.0000
vn 0.5973 0.8020 -0.0000
vn 0.0002 0.1080 0.9941
vn 0.0001 0.1127 0.9936
vn 0.0340 -0.0776 0.9964
vn 0.0388 -0.0854 0.9956
vn 0.9941 0.1082 0.0000
vn 0.9941 0.1082 -0.0000
vn 0.0002 0.1080 -0.9941
vn 0.0001 0.1127 -0.9936
vn -0.0347 -0.0784 -0.9963
vn -0.0395 -0.0863 -0.9955
vn -0.9942 0.1079 0.0000
vn -0.9942 0.1079 -0.0000
vn -0.0347 -0.0784 0.9963
vn -0.0395 -0.0863 0.9955
vn 0.0340 -0.0776 -0.9964
vn 0.0388 -0.0854 -0.9956
vn 0.5112 -0.7413 0.4349
vn -0.5126 -0.7392 0.4368
vn -0.5126 -0.7392 -0.4368
vn 0.5112 -0.7413 -0.4349
vn 0.0010 1.0000 -0.0000
vn -0.3630 0.9318 -0.0000
vn -0.3630 0.9318 0.0000
vn 0.0010 1.0000 0.0000
vn 0.3648 0.9311 -0.0000
vn 0.3648 0.9311 0.0000
vn 0.0001 0.1092 0.9940
vn 0.0147 -0.0572 0.9983
vn 0.0198 -0.0658 0.9976
vn 0.9793 0.2026 0.0000
vn -0.9794 0.2020 -0.0000
vn -0.0222 -0.0800 0.9965
vn -0.0150 -0.0578 0.9982
vn -0.0202 -0.0666 0.9976
vn -0.0208 -0.0863 0.9961
vn 0.1774 -0.4970 0.8495
vn -0.3068 -0.8403 0.4470
vn -0.9794 0.2020 0.0000
vn 0.0218 -0.0792 0.9966
vn 0.0204 -0.0855 0.9961
vn 0.3057 -0.8419 0.4446
vn -0.1772 -0.4937 0.8514
vn 0.0000 -0.0000 -1.0000
# 56 vertex normals

vt 0.7905 0.9290 0.0000
vt 0.7903 0.9104 0.0000
vt 0.8311 0.9104 0.0000
vt 0.8313 0.9290 0.0000
vt 0.8311 0.8710 0.0000
vt 0.7904 0.8710 0.0000
vt 0.7904 0.8525 0.0000
vt 0.8311 0.8525 0.0000
vt 0.8499 0.9290 0.0000
vt 0.8499 0.9312 0.0000
vt 0.8313 0.9312 0.0000
vt 0.7903 0.8918 0.0000
vt 0.7904 0.8895 0.0000
vt 0.8311 0.8895 0.0000
vt 0.8311 0.8918 0.0000
vt 0.7310 0.9298 0.0000
vt 0.7311 0.9321 0.0000
vt 0.7125 0.9329 0.0000
vt 0.7124 0.9306 0.0000
vt 0.7905 0.9312 0.0000
vt 0.7497 0.9312 0.0000
vt 0.7496 0.9290 0.0000
vt 0.7495 0.9104 0.0000
vt 0.7497 0.8895 0.0000
vt 0.7497 0.8710 0.0000
vt 0.7495 0.8918 0.0000
vt 0.8684 0.9290 0.0000
vt 0.8684 0.9312 0.0000
vt 0.7497 0.8525 0.0000
vt 0.2354 0.4750 0.0000
vt 0.1184 0.4747 0.0000
vt 0.1184 0.2413 0.0000
vt 0.2354 0.2410 0.0000
vt 0.7273 0.6560 0.0000
vt 0.9693 0.6560 0.0000
vt 0.9696 0.8269 0.0000
vt 0.7271 0.8269 0.0000
vt 0.2356 0.1234 0.0000
vt 0.5726 0.1231 0.0000
vt 0.4571 0.2403 0.0000
vt 0.2355 0.7093 0.0000
vt 0.4573 0.7097 0.0000
vt 0.4560 0.9443 0.0000
vt 0.2342 0.9426 0.0000
vt 0.2355 0.5928 0.0000
vt 0.5727 0.5929 0.0000
vt 0.4571 0.4757 0.0000
vt 0.0020 0.4747 0.0000
vt 0.0020 0.2413 0.0000
vt 0.7271 0.4856 0.0000
vt 0.9696 0.4856 0.0000
vt 0.2358 0.0070 0.0000
vt 0.4579 0.0073 0.0000
vt 0.7124 0.6560 0.0000
vt 0.7239 0.8375 0.0000
vt 0.7239 0.4750 0.0000
vt 0.9728 0.4750 0.0000
vt 0.9842 0.6560 0.0000
vt 0.9728 0.8375 0.0000
vt 0.5766 0.1227 0.0000
vt 0.4597 0.2412 0.0000
vt 0.4584 0.0020 0.0000
vt 0.4600 0.7110 0.0000
vt 0.4613 0.9475 0.0000
vt 0.5770 0.5929 0.0000
vt 0.4597 0.4749 0.0000
vt 0.8344 0.3043 0.0000
vt 0.8315 0.3050 0.0000
vt 0.8313 0.1412 0.0000
vt 0.8368 0.1343 0.0000
vt 0.9876 0.0074 0.0000
vt 0.9900 0.0578 0.0000
vt 0.8249 0.0578 0.0000
vt 0.8160 0.0087 0.0000
vt 0.8300 0.1342 0.0000
vt 0.8234 0.0628 0.0000
vt 0.8248 0.0661 0.0000
vt 0.8314 0.1324 0.0000
vt 0.5947 0.1371 0.0000
vt 0.5950 0.0663 0.0000
vt 0.7588 0.0660 0.0000
vt 0.7588 0.1379 0.0000
vt 0.8332 0.0663 0.0000
vt 0.9973 0.0667 0.0000
vt 0.9980 0.1373 0.0000
vt 0.7625 0.1410 0.0000
vt 0.7623 0.3047 0.0000
vt 0.7594 0.3041 0.0000
vt 0.5980 0.0598 0.0000
vt 0.6018 0.0543 0.0000
vt 0.7670 0.0577 0.0000
vt 0.7637 0.0596 0.0000
vt 0.7968 0.1344 0.0000
vt 0.7639 0.1346 0.0000
vt 0.7685 0.0630 0.0000
vt 0.7957 0.0264 0.0000
vt 0.7959 0.0230 0.0000
vt 0.7962 0.0143 0.0000
vt 0.8185 0.0622 0.0000
vt 0.8222 0.0645 0.0000
vt 0.7607 0.0636 0.0000
vt 0.5957 0.0641 0.0000
vt 0.9939 0.0609 0.0000
vt 0.9963 0.0648 0.0000
vt 0.8313 0.0642 0.0000
vt 0.8283 0.0605 0.0000
vt 0.7708 0.0636 0.0000
vt 0.7734 0.0621 0.0000
vt 0.7697 0.0646 0.0000
vt 0.7671 0.0651 0.0000
vt 0.8246 0.0651 0.0000
vt 0.7969 0.1417 0.0000
vt 0.8209 0.0636 0.0000
vt 0.7669 0.0661 0.0000
vt 0.7648 0.1364 0.0000
vt 0.7772 0.0097 0.0000
vt 0.7968 0.3053 0.0000
vt 0.6062 0.0020 0.0000
vt 0.2280 0.0520 0.0000
vt 0.2280 0.0558 0.0000
vt 0.0073 0.0558 0.0000
vt 0.0073 0.0520 0.0000
vt 0.2280 0.0679 0.0000
vt 0.0073 0.0679 0.0000
vt 0.2280 0.0713 0.0000
vt 0.0073 0.0713 0.0000
vt 0.2280 0.0834 0.0000
vt 0.0073 0.0834 0.0000
vt 0.2281 0.0341 0.0000
vt 0.2281 0.0462 0.0000
vt 0.0073 0.0462 0.0000
vt 0.0073 0.0341 0.0000
vt 0.2281 0.0496 0.0000
vt 0.0073 0.0496 0.0000
vt 0.2281 0.0182 0.0000
vt 0.2281 0.0303 0.0000
vt 0.0073 0.0303 0.0000
vt 0.0073 0.0182 0.0000
# 138 texture coords

g Box003
usemtl 07___Default
s 2
f 1/1/1 2/2/1 3/3/1 4/4/2 
s 4
f 5/5/3 6/6/4 7/7/3 8/8/3 
s 8
f 3/9/5 5/10/5 8/11/5 4/4/5 
s 16
f 9/12/6 10/13/6 11/14/6 12/15/6 
s 32
f 13/16/7 14/17/7 15/18/7 16/19/7 
s 64
f 1/1/8 7/20/8 17/21/8 18/22/8 
s 2
f 18/22/1 13/23/2 2/2/1 1/1/1 
s 4
f 15/24/4 14/25/3 6/6/4 10/13/4 
s 16
f 16/26/6 15/24/6 10/13/6 9/12/6 
s 64
f 4/4/8 8/11/8 7/20/8 1/1/8 
s 2
f 9/12/2 12/15/2 3/3/1 2/2/1 
s 4
f 11/14/4 10/13/4 6/6/4 5/5/3 
s 8
f 12/27/5 11/28/5 5/10/5 3/9/5 
s 32
f 18/22/7 17/21/7 14/17/7 13/16/7 
s 2
f 16/26/2 9/12/2 2/2/1 13/23/2 
s 4
f 17/29/3 7/7/3 6/6/4 14/25/3 
usemtl 01___Default
s 2
f 19/30/5 20/31/5 21/32/5 22/33/5 
usemtl 03___Default
s 4
f 23/34/9 24/35/9 25/36/10 26/37/10 
usemtl 01___Default
s 8
f 21/38/11 27/39/3 28/40/12 22/33/11 
s 16
f 29/41/6 30/42/6 31/43/6 32/44/6 
s 32
f 20/45/2 33/46/2 30/42/2 29/41/2 
s 64
f 22/33/8 28/40/8 34/47/8 19/30/8 
s 2
f 29/48/5 32/49/5 21/32/5 20/31/5 
usemtl 03___Default
s 4
f 35/50/13 36/51/13 24/35/9 23/34/9 
usemtl 01___Default
s 8
f 21/38/11 32/52/11 31/53/11 27/39/3 
s 32
f 20/45/2 19/30/2 34/47/1 33/46/2 
usemtl 03___Default
s 8
f 37/54/14 23/34/15 26/37/16 38/55/17 
s 16
f 36/51/18 35/50/19 39/56/19 40/57/18 
s 32
f 41/58/20 24/35/21 36/51/22 40/57/23 
s 64
f 26/37/24 25/36/25 42/59/25 38/55/24 
s 8
f 35/50/26 23/34/15 37/54/14 39/56/27 
s 32
f 25/36/28 24/35/21 41/58/20 42/59/29 
s off
f 28/40/30 27/39/30 37/60/30 38/61/30 
f 27/39/31 31/53/31 39/62/31 37/60/31 
f 31/43/5 30/42/5 40/63/5 39/64/5 
f 30/42/32 33/46/32 41/65/32 40/63/32 
f 33/46/33 34/47/33 42/66/33 41/65/33 
f 34/47/5 28/40/5 38/61/5 42/66/5 
usemtl Material__26
s 2
f 43/67/5 44/68/5 45/69/5 46/70/5 
usemtl 03___Default
s 4
f 47/71/34 48/72/35 49/73/36 50/74/37 
usemtl 02___Default
s 8
f 51/75/3 52/76/3 53/77/3 54/78/3 
usemtl 01___Default
s 16
f 55/79/6 56/80/6 57/81/6 58/82/6 
s 64
f 46/70/8 59/83/8 60/84/8 43/85/8 
usemtl Material__26
s 2
f 58/82/5 61/86/5 62/87/5 55/88/5 
usemtl 03___Default
s 4
f 63/89/38 64/90/38 65/91/38 66/92/39 
usemtl 01___Default
s 8
f 67/93/3 68/94/3 69/95/3 70/96/3 
usemtl 03___Default
f 71/97/40 72/98/15 73/99/41 74/100/42 
s 16
f 66/92/43 75/101/43 76/102/43 63/89/43 
s 64
f 77/103/44 78/104/44 79/105/44 80/106/44 
s 8
f 81/107/45 82/108/46 83/109/47 84/110/48 
s off
f 53/77/49 52/76/49 74/100/49 85/111/49 
f 69/95/50 83/109/50 71/97/50 70/96/50 
f 56/80/5 76/102/5 75/101/5 57/81/5 
f 59/83/5 79/105/5 78/104/5 60/84/5 
usemtl Material__26
s 2
f 67/93/5 51/75/5 45/69/5 86/112/5 
usemtl 03___Default
s 4
f 87/113/36 73/99/36 49/73/36 80/106/36 
usemtl 02___Default
s 16
f 88/114/6 89/115/6 58/82/6 57/81/6 
s 64
f 54/78/8 53/77/8 59/83/8 46/70/8 
usemtl 03___Default
s 4
f 72/98/37 82/108/38 65/91/38 50/116/37 
s 16
f 66/92/43 81/107/43 84/110/43 75/101/43 
s 64
f 85/111/51 87/113/51 80/106/44 79/105/44 
s off
f 75/101/5 84/110/5 88/114/5 57/81/5 
f 53/77/5 85/111/5 79/105/5 59/83/5 
usemtl Material__26
s 2
f 90/117/5 86/112/5 45/69/5 44/68/5 
usemtl 03___Default
s 4
f 77/103/35 80/106/36 49/73/36 48/72/35 
usemtl 01___Default
s 8
f 67/93/3 70/96/3 52/76/3 51/75/3 
usemtl 03___Default
f 87/113/52 85/111/53 74/100/42 73/99/41 
s off
f 52/76/54 70/96/54 71/97/54 74/100/54 
s 4
f 72/98/37 50/74/37 49/73/36 73/99/36 
usemtl Material__26
s 2
f 86/112/5 90/117/5 62/87/5 61/86/5 
usemtl 03___Default
s 4
f 47/118/34 50/116/37 65/91/38 64/90/38 
usemtl 02___Default
s 8
f 68/94/3 89/115/3 88/114/3 69/95/3 
usemtl 03___Default
f 82/108/46 72/98/15 71/97/40 83/109/47 
s off
f 88/114/55 84/110/55 83/109/55 69/95/55 
usemtl Material__26
s 2
f 67/93/5 86/112/5 61/86/5 68/94/5 
usemtl 03___Default
s 4
f 81/107/38 66/92/39 65/91/38 82/108/38 
usemtl 02___Default
s off
f 89/119/11 68/120/11 91/121/11 92/122/11 
f 68/120/8 61/123/8 93/124/8 91/121/8 
f 61/123/56 58/125/56 94/126/56 93/124/56 
f 58/125/6 89/127/6 92/128/6 94/126/6 
f 54/129/8 46/130/8 95/131/8 96/132/8 
usemtl Material__26
f 46/130/2 45/133/2 97/134/2 95/131/2 
f 45/135/6 51/136/6 98/137/6 97/138/6 
usemtl 02___Default
f 51/136/11 54/129/11 96/132/11 98/137/11 
# 84 polygons

