# 3ds Max Wavefront OBJ Exporter v0.97b - (c)2007 guruware
# File Created: 31.01.2016 04:28:18

mtllib light_low.mtl

#
# object Sphere001
#

v  -0.7177 3.4875 21.8838
v  -8.1172 4.8291 20.5607
v  -8.1070 2.2856 20.5625
v  -7.2157 -0.1631 20.5625
v  -5.5407 -2.1593 20.5625
v  -3.2840 -3.4622 20.5625
v  -0.7177 -3.9147 20.5625
v  1.8486 -3.4622 20.5625
v  4.1053 -2.1593 20.5625
v  5.7803 -0.1631 20.5625
v  6.6715 2.2856 20.5625
v  6.6818 4.8291 20.5607
v  -14.6004 5.9201 16.7535
v  -14.5847 1.1434 16.7585
v  -12.9121 -3.4519 16.7585
v  -9.7688 -7.1981 16.7585
v  -5.5337 -9.6432 16.7585
v  -0.7177 -10.4924 16.7585
v  4.0983 -9.6432 16.7585
v  8.3333 -7.1981 16.7585
v  11.4767 -3.4520 16.7585
v  13.1493 1.1434 16.7585
v  13.1650 5.9201 16.7535
v  -19.4070 6.7299 10.9306
v  -19.3906 0.2960 10.9363
v  -17.1384 -5.8920 10.9363
v  -12.9056 -10.9364 10.9363
v  -7.2027 -14.2290 10.9363
v  -0.7177 -15.3725 10.9363
v  5.7673 -14.2290 10.9363
v  11.4702 -10.9364 10.9363
v  15.7030 -5.8920 10.9363
v  17.9552 0.2960 10.9363
v  17.9716 6.7298 10.9306
v  -21.9181 7.1607 3.9647
v  -21.9021 -0.1469 3.9693
v  -19.3470 -7.1671 3.9693
v  -14.5449 -12.8900 3.9693
v  -8.0750 -16.6254 3.9693
v  -0.7177 -17.9227 3.9693
v  6.6396 -16.6254 3.9693
v  13.1094 -12.8900 3.9693
v  17.9116 -7.1671 3.9693
v  20.4667 -0.1469 3.9693
v  20.4827 7.1607 3.9647
v  -7.7536 2.3479 19.6291
v  -7.7536 4.8291 19.6291
v  -0.7177 3.5885 20.8889
v  -6.9050 0.0163 19.6291
v  -5.3100 -1.8844 19.6291
v  -3.1612 -3.1250 19.6291
v  -0.7177 -3.5559 19.6291
v  1.7258 -3.1250 19.6291
v  3.8746 -1.8844 19.6291
v  5.4695 0.0163 19.6291
v  6.3182 2.3479 19.6291
v  6.3182 4.8291 19.6291
v  -13.9408 1.2569 16.0018
v  -13.9408 5.9201 16.0018
v  -12.3459 -3.1250 16.0018
v  -9.3485 -6.6972 16.0018
v  -5.3101 -9.0288 16.0018
v  -0.7177 -9.8386 16.0018
v  3.8746 -9.0288 16.0018
v  7.9131 -6.6973 16.0018
v  10.9105 -3.1251 16.0018
v  12.5054 1.2569 16.0018
v  12.5054 5.9201 16.0018
v  -18.5332 0.4472 10.4444
v  -18.5332 6.7299 10.4444
v  -16.3844 -5.4566 10.4444
v  -12.3459 -10.2695 10.4444
v  -6.9050 -13.4108 10.4444
v  -0.7177 -14.5018 10.4444
v  5.4695 -13.4108 10.4444
v  10.9105 -10.2695 10.4444
v  14.9490 -5.4566 10.4444
v  17.0978 0.4472 10.4444
v  17.0978 6.7298 10.4444
v  -20.9767 0.0163 3.6273
v  -20.9767 7.1607 3.6273
v  -18.5332 -6.6972 3.6273
v  -13.9408 -12.1702 3.6273
v  -7.7536 -15.7424 3.6273
v  -0.7177 -16.9830 3.6273
v  6.3182 -15.7424 3.6273
v  12.5054 -12.1702 3.6273
v  17.0978 -6.6973 3.6273
v  19.5413 0.0163 3.6273
v  19.5413 7.1607 3.6273
# 90 vertices

vn -0.0000 -0.1028 0.9947
vn -0.3642 -0.0007 0.9313
vn -0.3535 -0.0627 0.9333
vn -0.3115 -0.1797 0.9331
vn -0.2314 -0.2756 0.9330
vn -0.1232 -0.3383 0.9329
vn -0.0000 -0.3601 0.9329
vn 0.1232 -0.3383 0.9329
vn 0.2314 -0.2756 0.9330
vn 0.3115 -0.1797 0.9331
vn 0.3536 -0.0626 0.9333
vn 0.3644 -0.0008 0.9312
vn -0.6598 -0.0013 0.7515
vn -0.6441 -0.1143 0.7563
vn -0.5666 -0.3271 0.7562
vn -0.4206 -0.5012 0.7562
vn -0.2238 -0.6148 0.7562
vn -0.0000 -0.6543 0.7562
vn 0.2238 -0.6148 0.7562
vn 0.4206 -0.5012 0.7562
vn 0.5666 -0.3271 0.7562
vn 0.6441 -0.1142 0.7563
vn 0.6598 -0.0014 0.7514
vn -0.8735 -0.0017 0.4868
vn -0.8569 -0.1520 0.4925
vn -0.7537 -0.4352 0.4925
vn -0.5594 -0.6667 0.4925
vn -0.2977 -0.8178 0.4925
vn -0.0000 -0.8703 0.4925
vn 0.2977 -0.8178 0.4925
vn 0.5594 -0.6667 0.4925
vn 0.7537 -0.4352 0.4925
vn 0.8569 -0.1520 0.4925
vn 0.8735 -0.0019 0.4868
vn -0.9408 -0.0018 0.3390
vn -0.9247 -0.1640 0.3437
vn -0.8133 -0.4695 0.3437
vn -0.6036 -0.7194 0.3437
vn -0.3212 -0.8824 0.3437
vn -0.0000 -0.9391 0.3437
vn 0.3212 -0.8824 0.3437
vn 0.6036 -0.7194 0.3437
vn 0.8133 -0.4695 0.3437
vn 0.9246 -0.1639 0.3437
vn 0.9407 -0.0020 0.3391
vn 0.3534 0.0623 -0.9334
vn 0.3636 0.0000 -0.9315
vn 0.0000 0.1010 -0.9949
vn 0.3107 0.1794 -0.9334
vn 0.2306 0.2749 -0.9334
vn 0.1227 0.3372 -0.9334
vn 0.0000 0.3588 -0.9334
vn -0.1227 0.3372 -0.9334
vn -0.2306 0.2749 -0.9334
vn -0.3107 0.1794 -0.9334
vn -0.3534 0.0623 -0.9334
vn -0.3636 0.0000 -0.9315
vn 0.6439 0.1135 -0.7567
vn 0.6595 -0.0000 -0.7517
vn 0.5662 0.3269 -0.7567
vn 0.4203 0.5009 -0.7567
vn 0.2236 0.6144 -0.7567
vn 0.0000 0.6538 -0.7567
vn -0.2236 0.6144 -0.7567
vn -0.4203 0.5009 -0.7567
vn -0.5662 0.3269 -0.7567
vn -0.6439 0.1135 -0.7567
vn -0.6595 0.0000 -0.7517
vn 0.8574 0.1512 -0.4919
vn 0.8739 -0.0000 -0.4862
vn 0.7540 0.4353 -0.4919
vn 0.5597 0.6670 -0.4919
vn 0.2978 0.8182 -0.4919
vn 0.0000 0.8707 -0.4919
vn -0.2978 0.8182 -0.4919
vn -0.5597 0.6670 -0.4919
vn -0.7540 0.4353 -0.4919
vn -0.8574 0.1512 -0.4919
vn -0.8739 0.0000 -0.4862
vn 0.9254 0.1632 -0.3420
vn 0.9414 -0.0000 -0.3374
vn 0.8138 0.4698 -0.3420
vn 0.6040 0.7198 -0.3420
vn 0.3214 0.8830 -0.3420
vn 0.0000 0.9397 -0.3420
vn -0.3214 0.8830 -0.3420
vn -0.6040 0.7198 -0.3420
vn -0.8138 0.4698 -0.3420
vn -0.9254 0.1632 -0.3420
vn -0.9414 0.0000 -0.3374
vn 0.0025 0.9950 0.0997
vn 0.1483 0.9871 0.0600
vn 0.1486 0.9871 0.0598
vn 0.0019 0.9950 0.0994
vn -0.1540 0.9861 0.0616
vn -0.1526 0.9863 0.0621
vn 0.0973 0.9914 0.0873
vn 0.0989 0.9916 0.0837
vn -0.0988 0.9916 0.0840
vn -0.0958 0.9917 0.0863
vn 0.0416 0.9963 0.0756
vn 0.0430 0.9963 0.0738
vn -0.0423 0.9964 0.0730
vn -0.0404 0.9965 0.0736
vn 0.0200 0.9982 0.0559
vn 0.0208 0.9982 0.0555
vn -0.3382 -0.0012 -0.9411
vn -0.3368 -0.0594 -0.9397
vn -0.3364 -0.0594 -0.9398
vn -0.3374 -0.0013 -0.9414
vn -0.2962 -0.1710 -0.9397
vn -0.2198 -0.2620 -0.9397
vn -0.1170 -0.3214 -0.9397
vn -0.0000 -0.3420 -0.9397
vn 0.1170 -0.3214 -0.9397
vn 0.2198 -0.2620 -0.9397
vn 0.2962 -0.1710 -0.9397
vn 0.3363 -0.0600 -0.9398
vn 0.3367 -0.0600 -0.9397
vn -0.0204 0.9983 0.0545
vn -0.0196 0.9983 0.0547
vn 0.3374 -0.0000 -0.9414
vn 0.3382 -0.0001 -0.9411
# 123 vertex normals

vt 0.4935 0.0176 0.0000
vt 0.6236 0.0247 0.0000
vt 0.6122 0.0625 0.0000
vt 0.5903 0.0954 0.0000
vt 0.5611 0.1203 0.0000
vt 0.5269 0.1356 0.0000
vt 0.4904 0.1403 0.0000
vt 0.4545 0.1342 0.0000
vt 0.4215 0.1177 0.0000
vt 0.3936 0.0920 0.0000
vt 0.3731 0.0584 0.0000
vt 0.3629 0.0204 0.0000
vt 0.7498 0.0539 0.0000
vt 0.7207 0.1234 0.0000
vt 0.6768 0.1829 0.0000
vt 0.6213 0.2274 0.0000
vt 0.5576 0.2547 0.0000
vt 0.4896 0.2633 0.0000
vt 0.4217 0.2527 0.0000
vt 0.3587 0.2234 0.0000
vt 0.3046 0.1771 0.0000
vt 0.2627 0.1161 0.0000
vt 0.2359 0.0458 0.0000
vt 0.8678 0.1034 0.0000
vt 0.8206 0.1946 0.0000
vt 0.7572 0.2744 0.0000
vt 0.6777 0.3353 0.0000
vt 0.5859 0.3731 0.0000
vt 0.4876 0.3851 0.0000
vt 0.3897 0.3701 0.0000
vt 0.2990 0.3294 0.0000
vt 0.2214 0.2660 0.0000
vt 0.1606 0.1842 0.0000
vt 0.1164 0.0916 0.0000
vt 0.9713 0.1647 0.0000
vt 0.9148 0.2685 0.0000
vt 0.8348 0.3646 0.0000
vt 0.7327 0.4403 0.0000
vt 0.6136 0.4881 0.0000
vt 0.4857 0.5033 0.0000
vt 0.3583 0.4842 0.0000
vt 0.2408 0.4326 0.0000
vt 0.1410 0.3537 0.0000
vt 0.0641 0.2551 0.0000
vt 0.0109 0.1495 0.0000
vt 0.3574 0.5747 0.0000
vt 0.3488 0.5369 0.0000
vt 0.4728 0.5410 0.0000
vt 0.3764 0.6075 0.0000
vt 0.4030 0.6331 0.0000
vt 0.4351 0.6496 0.0000
vt 0.4701 0.6559 0.0000
vt 0.5053 0.6513 0.0000
vt 0.5381 0.6363 0.0000
vt 0.5659 0.6120 0.0000
vt 0.5864 0.5801 0.0000
vt 0.5968 0.5428 0.0000
vt 0.2508 0.6240 0.0000
vt 0.2263 0.5552 0.0000
vt 0.2897 0.6833 0.0000
vt 0.3409 0.7293 0.0000
vt 0.4015 0.7589 0.0000
vt 0.4673 0.7701 0.0000
vt 0.5337 0.7621 0.0000
vt 0.5956 0.7353 0.0000
vt 0.6489 0.6918 0.0000
vt 0.6905 0.6344 0.0000
vt 0.7183 0.5668 0.0000
vt 0.1513 0.6833 0.0000
vt 0.1098 0.5931 0.0000
vt 0.2080 0.7630 0.0000
vt 0.2816 0.8264 0.0000
vt 0.3691 0.8679 0.0000
vt 0.4647 0.8838 0.0000
vt 0.5609 0.8725 0.0000
vt 0.6503 0.8351 0.0000
vt 0.7268 0.7753 0.0000
vt 0.7872 0.6984 0.0000
vt 0.8329 0.6103 0.0000
vt 0.0544 0.7458 0.0000
vt 0.0020 0.6419 0.0000
vt 0.1261 0.8431 0.0000
vt 0.2212 0.9235 0.0000
vt 0.3360 0.9773 0.0000
vt 0.4620 0.9980 0.0000
vt 0.5888 0.9833 0.0000
vt 0.7059 0.9350 0.0000
vt 0.8048 0.8592 0.0000
vt 0.8810 0.7654 0.0000
vt 0.9382 0.6641 0.0000
vt 0.4936 0.0020 0.0000
vt 0.6253 0.0097 0.0000
vt 0.3617 0.0054 0.0000
vt 0.7535 0.0392 0.0000
vt 0.2326 0.0309 0.0000
vt 0.8735 0.0891 0.0000
vt 0.1111 0.0771 0.0000
vt 0.9803 0.1621 0.0000
vt 0.9267 0.2778 0.0000
vt 0.8442 0.3761 0.0000
vt 0.7392 0.4533 0.0000
vt 0.6169 0.5021 0.0000
vt 0.4855 0.5175 0.0000
vt 0.3546 0.4980 0.0000
vt 0.2339 0.4454 0.0000
vt 0.1313 0.3649 0.0000
vt 0.0519 0.2641 0.0000
vt 0.0020 0.1467 0.0000
# 108 texture coords

g Sphere001
usemtl wire_088088225
s 1
f 1/1/1 2/2/2 3/3/3 
f 1/1/1 3/3/3 4/4/4 
f 1/1/1 4/4/4 5/5/5 
f 1/1/1 5/5/5 6/6/6 
f 1/1/1 6/6/6 7/7/7 
f 1/1/1 7/7/7 8/8/8 
f 1/1/1 8/8/8 9/9/9 
f 1/1/1 9/9/9 10/10/10 
f 1/1/1 10/10/10 11/11/11 
f 1/1/1 11/11/11 12/12/12 
f 2/2/2 13/13/13 14/14/14 3/3/3 
f 3/3/3 14/14/14 15/15/15 4/4/4 
f 4/4/4 15/15/15 16/16/16 5/5/5 
f 5/5/5 16/16/16 17/17/17 6/6/6 
f 6/6/6 17/17/17 18/18/18 7/7/7 
f 7/7/7 18/18/18 19/19/19 8/8/8 
f 8/8/8 19/19/19 20/20/20 9/9/9 
f 9/9/9 20/20/20 21/21/21 10/10/10 
f 10/10/10 21/21/21 22/22/22 11/11/11 
f 11/11/11 22/22/22 23/23/23 12/12/12 
f 13/13/13 24/24/24 25/25/25 14/14/14 
f 14/14/14 25/25/25 26/26/26 15/15/15 
f 15/15/15 26/26/26 27/27/27 16/16/16 
f 16/16/16 27/27/27 28/28/28 17/17/17 
f 17/17/17 28/28/28 29/29/29 18/18/18 
f 18/18/18 29/29/29 30/30/30 19/19/19 
f 19/19/19 30/30/30 31/31/31 20/20/20 
f 20/20/20 31/31/31 32/32/32 21/21/21 
f 21/21/21 32/32/32 33/33/33 22/22/22 
f 22/22/22 33/33/33 34/34/34 23/23/23 
f 24/24/24 35/35/35 36/36/36 25/25/25 
f 25/25/25 36/36/36 37/37/37 26/26/26 
f 26/26/26 37/37/37 38/38/38 27/27/27 
f 27/27/27 38/38/38 39/39/39 28/28/28 
f 28/28/28 39/39/39 40/40/40 29/29/29 
f 29/29/29 40/40/40 41/41/41 30/30/30 
f 30/30/30 41/41/41 42/42/42 31/31/31 
f 31/31/31 42/42/42 43/43/43 32/32/32 
f 32/32/32 43/43/43 44/44/44 33/33/33 
f 33/33/33 44/44/44 45/45/45 34/34/34 
f 46/46/46 47/47/47 48/48/48 
f 49/49/49 46/46/46 48/48/48 
f 50/50/50 49/49/49 48/48/48 
f 51/51/51 50/50/50 48/48/48 
f 52/52/52 51/51/51 48/48/48 
f 53/53/53 52/52/52 48/48/48 
f 54/54/54 53/53/53 48/48/48 
f 55/55/55 54/54/54 48/48/48 
f 56/56/56 55/55/55 48/48/48 
f 57/57/57 56/56/56 48/48/48 
f 58/58/58 59/59/59 47/47/47 46/46/46 
f 60/60/60 58/58/58 46/46/46 49/49/49 
f 61/61/61 60/60/60 49/49/49 50/50/50 
f 62/62/62 61/61/61 50/50/50 51/51/51 
f 63/63/63 62/62/62 51/51/51 52/52/52 
f 64/64/64 63/63/63 52/52/52 53/53/53 
f 65/65/65 64/64/64 53/53/53 54/54/54 
f 66/66/66 65/65/65 54/54/54 55/55/55 
f 67/67/67 66/66/66 55/55/55 56/56/56 
f 68/68/68 67/67/67 56/56/56 57/57/57 
f 69/69/69 70/70/70 59/59/59 58/58/58 
f 71/71/71 69/69/69 58/58/58 60/60/60 
f 72/72/72 71/71/71 60/60/60 61/61/61 
f 73/73/73 72/72/72 61/61/61 62/62/62 
f 74/74/74 73/73/73 62/62/62 63/63/63 
f 75/75/75 74/74/74 63/63/63 64/64/64 
f 76/76/76 75/75/75 64/64/64 65/65/65 
f 77/77/77 76/76/76 65/65/65 66/66/66 
f 78/78/78 77/77/77 66/66/66 67/67/67 
f 79/79/79 78/78/78 67/67/67 68/68/68 
f 80/80/80 81/81/81 70/70/70 69/69/69 
f 82/82/82 80/80/80 69/69/69 71/71/71 
f 83/83/83 82/82/82 71/71/71 72/72/72 
f 84/84/84 83/83/83 72/72/72 73/73/73 
f 85/85/85 84/84/84 73/73/73 74/74/74 
f 86/86/86 85/85/85 74/74/74 75/75/75 
f 87/87/87 86/86/86 75/75/75 76/76/76 
f 88/88/88 87/87/87 76/76/76 77/77/77 
f 89/89/89 88/88/88 77/77/77 78/78/78 
f 90/90/90 89/89/89 78/78/78 79/79/79 
s 2
f 48/91/91 47/92/92 2/2/93 1/1/94 
f 57/93/95 48/91/91 1/1/94 12/12/96 
f 47/92/92 59/94/97 13/13/98 2/2/93 
f 68/95/99 57/93/95 12/12/96 23/23/100 
f 59/94/97 70/96/101 24/24/102 13/13/98 
f 79/97/103 68/95/99 23/23/100 34/34/104 
f 70/96/101 81/98/105 35/35/106 24/24/102 
s 4
f 81/98/107 80/99/108 36/36/109 35/35/110 
f 80/99/108 82/100/111 37/37/111 36/36/109 
f 82/100/111 83/101/112 38/38/112 37/37/111 
f 83/101/112 84/102/113 39/39/113 38/38/112 
f 84/102/113 85/103/114 40/40/114 39/39/113 
f 85/103/114 86/104/115 41/41/115 40/40/114 
f 86/104/115 87/105/116 42/42/116 41/41/115 
f 87/105/116 88/106/117 43/43/117 42/42/116 
f 88/106/117 89/107/118 44/44/119 43/43/117 
s 2
f 90/108/120 79/97/103 34/34/104 45/45/121 
s 4
f 89/107/118 90/108/122 45/45/123 44/44/119 
# 78 polygons - 20 triangles

